<?xml version="1.0" encoding="UTF-8" standalone="no"?>
<!-- Created with Inkscape (http://www.inkscape.org/) -->

<svg
   xmlns:dc="http://purl.org/dc/elements/1.1/"
   xmlns:cc="http://creativecommons.org/ns#"
   xmlns:rdf="http://www.w3.org/1999/02/22-rdf-syntax-ns#"
   xmlns="http://www.w3.org/2000/svg"
   version="1.1"
   width="29.999998"
   height="45.34824"
   viewBox="0 0 29.999998 45.34824"
   id="Capa_1"
   xml:space="preserve"><metadata
   id="metadata41"><rdf:RDF><cc:Work
       rdf:about=""><dc:format>image/svg+xml</dc:format><dc:type
         rdf:resource="http://purl.org/dc/dcmitype/StillImage" /><dc:title></dc:title></cc:Work></rdf:RDF></metadata><defs
   id="defs39" />
<g
   transform="matrix(0.09719243,0,0,0.09719243,-7.6741234,0)"
   id="g3"
   style="fill:#2e3192;fill-opacity:1">
	<path
   d="m 233.292,0 c -85.1,0 -154.334,69.234 -154.334,154.333 0,34.275 21.887,90.155 66.908,170.834 31.846,57.063 63.168,104.643 64.484,106.64 l 22.942,34.775 22.941,-34.774 c 1.317,-1.998 32.641,-49.577 64.483,-106.64 45.023,-80.68 66.908,-136.559 66.908,-170.834 C 387.625,69.234 318.391,0 233.292,0 z m 0,233.291 c -44.182,0 -80,-35.817 -80,-80 0,-44.183 35.818,-80 80,-80 44.182,0 80,35.817 80,80 0,44.183 -35.819,80 -80,80 z"
   id="path5"
   style="fill:#2e3192;fill-opacity:1" />
</g>
<g
   transform="translate(-78.958003,-421.23376)"
   id="g7">
</g>
<g
   transform="translate(-78.958003,-421.23376)"
   id="g9">
</g>
<g
   transform="translate(-78.958003,-421.23376)"
   id="g11">
</g>
<g
   transform="translate(-78.958003,-421.23376)"
   id="g13">
</g>
<g
   transform="translate(-78.958003,-421.23376)"
   id="g15">
</g>
<g
   transform="translate(-78.958003,-421.23376)"
   id="g17">
</g>
<g
   transform="translate(-78.958003,-421.23376)"
   id="g19">
</g>
<g
   transform="translate(-78.958003,-421.23376)"
   id="g21">
</g>
<g
   transform="translate(-78.958003,-421.23376)"
   id="g23">
</g>
<g
   transform="translate(-78.958003,-421.23376)"
   id="g25">
</g>
<g
   transform="translate(-78.958003,-421.23376)"
   id="g27">
</g>
<g
   transform="translate(-78.958003,-421.23376)"
   id="g29">
</g>
<g
   transform="translate(-78.958003,-421.23376)"
   id="g31">
</g>
<g
   transform="translate(-78.958003,-421.23376)"
   id="g33">
</g>
<g
   transform="translate(-78.958003,-421.23376)"
   id="g35">
</g>
</svg>