<?xml version="1.0" standalone="no"?>
<!DOCTYPE svg PUBLIC "-//W3C//DTD SVG 20010904//EN"
 "http://www.w3.org/TR/2001/REC-SVG-20010904/DTD/svg10.dtd">
<svg version="1.0" xmlns="http://www.w3.org/2000/svg"
 width="386.000000pt" height="604.000000pt" viewBox="0 0 386.000000 604.000000"
 preserveAspectRatio="xMidYMid meet">
<metadata>
Created by potrace 1.16, written by Peter Selinger 2001-2019
</metadata>
<g transform="translate(0.000000,604.000000) scale(0.100000,-0.100000)"
fill="#7f898a" stroke="none">
<path d="M1741 5969 c-296 -36 -628 -172 -859 -351 -483 -375 -748 -940 -719
-1533 22 -428 145 -706 704 -1583 327 -514 442 -710 588 -1007 221 -447 363
-845 460 -1287 l28 -128 52 0 52 0 12 63 c46 243 150 601 246 847 187 480 363
804 850 1565 232 362 307 491 430 740 114 231 149 318 181 449 121 500 31
1009 -254 1431 -285 423 -687 684 -1207 782 -95 18 -455 26 -564 12z m534
-142 c512 -95 905 -357 1167 -779 231 -372 305 -833 202 -1259 -31 -128 -56
-192 -165 -414 -125 -255 -189 -367 -424 -735 -114 -179 -243 -381 -285 -450
-362 -588 -606 -1123 -743 -1629 l-34 -124 -23 84 c-84 313 -211 649 -370 977
-160 328 -273 523 -635 1092 -429 673 -573 953 -641 1245 -26 110 -28 136 -28
325 0 316 43 507 175 767 254 502 739 842 1306 913 97 12 403 4 498 -13z"/>
<path d="M1859 5032 c-79 -54 -209 -143 -289 -197 -80 -54 -228 -155 -330
-223 -361 -244 -348 -233 -314 -266 14 -14 128 -16 1103 -16 1162 0 1119 -2
1109 46 -2 9 -103 84 -225 167 l-223 151 0 184 c0 107 -4 191 -10 203 -10 18
-23 19 -183 19 -121 0 -177 -4 -185 -12 -7 -7 -12 -38 -12 -70 l0 -58 -35 22
c-19 13 -75 51 -126 86 -50 34 -101 62 -113 62 -12 0 -87 -44 -167 -98z"/>
<path d="M1230 4291 c-6 -13 -10 -171 -10 -445 0 -373 2 -426 16 -440 14 -14
99 -16 784 -16 685 0 770 2 784 16 14 14 16 67 16 440 0 274 -4 432 -10 445
-10 19 -30 19 -790 19 -760 0 -780 0 -790 -19z m1220 -591 l0 -230 -140 0
-140 0 0 230 0 230 140 0 140 0 0 -230z"/>
</g>
</svg>
