<?xml version="1.0" standalone="no"?>
<!DOCTYPE svg PUBLIC "-//W3C//DTD SVG 20010904//EN"
 "http://www.w3.org/TR/2001/REC-SVG-20010904/DTD/svg10.dtd">
<svg version="1.0" xmlns="http://www.w3.org/2000/svg"
 width="381.000000pt" height="606.000000pt" viewBox="0 0 381.000000 606.000000"
 preserveAspectRatio="xMidYMid meet">

<g transform="translate(0.000000,606.000000) scale(0.100000,-0.100000)"
fill="#099918" stroke="none">
<path d="M1671 5999 c-296 -36 -628 -172 -859 -351 -483 -375 -748 -940 -719
-1533 22 -428 145 -706 704 -1583 327 -514 442 -710 588 -1007 221 -447 363
-845 460 -1287 l28 -128 52 0 52 0 12 63 c46 243 150 601 246 847 187 480 363
804 850 1565 232 362 307 491 430 740 114 231 149 318 181 449 121 500 31
1009 -254 1431 -285 423 -687 684 -1207 782 -95 18 -455 26 -564 12z m534
-142 c512 -95 905 -357 1167 -779 231 -372 305 -833 202 -1259 -31 -128 -56
-192 -165 -414 -125 -255 -189 -367 -424 -735 -114 -179 -243 -381 -285 -450
-362 -588 -606 -1123 -743 -1629 l-34 -124 -23 84 c-84 313 -211 649 -370 977
-160 328 -273 523 -635 1092 -429 673 -573 953 -641 1245 -26 110 -28 136 -28
325 0 316 43 507 175 767 254 502 739 842 1306 913 97 12 403 4 498 -13z"/>
<path d="M1805 4965 c-14 -13 -25 -31 -25 -40 0 -13 -17 -15 -108 -15 -100 0
-110 -2 -130 -23 -19 -20 -22 -35 -22 -105 0 -117 7 -122 150 -122 l110 0 0
-50 c0 -49 0 -50 -48 -74 -27 -14 -72 -50 -100 -80 l-51 -56 -286 0 -286 0
-24 -25 c-24 -23 -25 -28 -25 -170 0 -142 1 -147 25 -170 l24 -25 285 0 284 0
30 -40 c106 -144 301 -192 467 -116 58 26 150 105 160 137 8 25 41 24 55 0 5
-11 10 -51 10 -90 0 -56 -3 -71 -15 -71 -26 0 -45 -55 -45 -129 0 -81 12 -114
47 -130 15 -7 95 -11 209 -11 255 0 262 5 252 171 -3 62 -7 74 -30 93 -26 21
-26 23 -30 181 -3 151 -5 164 -31 217 -59 120 -162 178 -318 178 l-89 0 -59
60 c-33 33 -80 69 -105 81 -46 20 -46 20 -46 69 l0 50 114 0 c112 0 115 1 135
26 17 21 21 41 21 99 0 58 -4 78 -21 99 -20 25 -23 26 -135 26 l-114 0 0 24
c0 41 -34 56 -128 56 -75 0 -85 -2 -107 -25z"/>
<path d="M2452 3464 c-27 -18 -34 -34 -74 -164 -64 -207 -78 -256 -78 -290 0
-54 33 -115 81 -149 37 -27 50 -31 108 -31 76 0 113 18 157 75 21 28 29 51 32
94 3 48 -5 85 -57 249 -34 106 -61 195 -61 197 0 7 -58 35 -72 35 -8 0 -24 -7
-36 -16z"/>
</g>
</svg>
