<?xml version="1.0" standalone="no"?>
<!DOCTYPE svg PUBLIC "-//W3C//DTD SVG 20010904//EN"
 "http://www.w3.org/TR/2001/REC-SVG-20010904/DTD/svg10.dtd">
<svg version="1.0" xmlns="http://www.w3.org/2000/svg"
 width="404.000000pt" height="599.000000pt" viewBox="0 0 404.000000 599.000000"
 preserveAspectRatio="xMidYMid meet">

<g transform="translate(0.000000,599.000000) scale(0.100000,-0.100000)"
fill="#d4902a" stroke="none">
<path d="M1791 5919 c-296 -36 -628 -172 -859 -351 -483 -375 -748 -940 -719
-1533 22 -428 145 -706 704 -1583 327 -514 442 -710 588 -1007 221 -447 363
-845 460 -1287 l28 -128 52 0 52 0 12 63 c46 243 150 601 246 847 187 480 363
804 850 1565 232 362 307 491 430 740 114 231 149 318 181 449 121 500 31
1009 -254 1431 -285 423 -687 684 -1207 782 -95 18 -455 26 -564 12z m534
-142 c512 -95 905 -357 1167 -779 231 -372 305 -833 202 -1259 -31 -128 -56
-192 -165 -414 -125 -255 -189 -367 -424 -735 -114 -179 -243 -381 -285 -450
-362 -588 -606 -1123 -743 -1629 l-34 -124 -23 84 c-84 313 -211 649 -370 977
-160 328 -273 523 -635 1092 -429 673 -573 953 -641 1245 -26 110 -28 136 -28
325 0 316 43 507 175 767 254 502 739 842 1306 913 97 12 403 4 498 -13z"/>
<path d="M2612 5153 c-13 -2 -54 -34 -92 -69 -58 -56 -72 -64 -88 -55 -19 10
-135 -5 -234 -30 -39 -10 -56 -37 -41 -64 12 -21 255 -265 276 -276 34 -19 55
6 72 88 9 43 20 95 25 117 5 25 5 47 -3 63 -9 21 -6 29 39 74 55 57 78 69 117
62 56 -11 57 -22 57 -478 l0 -415 -820 0 c-877 0 -860 1 -904 -49 -12 -13 -21
-41 -24 -77 -5 -55 -4 -55 43 -101 48 -45 49 -47 102 -236 61 -216 76 -249
132 -300 51 -46 90 -66 145 -73 l45 -7 -30 -60 c-26 -50 -29 -64 -20 -84 12
-26 51 -32 70 -10 6 8 26 43 45 78 l34 64 432 0 432 0 34 -64 c19 -35 39 -70
45 -78 19 -22 58 -16 70 10 9 20 6 34 -20 84 l-30 60 45 7 c55 7 94 27 145 73
46 42 71 86 92 163 83 302 92 325 142 373 47 46 48 46 43 101 -3 36 -12 64
-24 77 -23 26 -74 49 -109 49 l-25 0 0 428 c0 395 -2 430 -19 468 -30 67 -117
105 -199 87z m-1234 -1378 c7 -22 22 -73 33 -113 19 -65 25 -74 55 -87 26 -10
34 -20 34 -38 0 -29 -19 -39 -60 -30 -44 8 -76 53 -104 146 -46 154 -46 171 1
165 23 -2 30 -11 41 -43z"/>
<path d="M2129 4703 c-53 -49 -69 -84 -49 -108 22 -27 54 -16 108 36 52 51 64
83 40 107 -22 22 -48 13 -99 -35z"/>
<path d="M1879 4613 c-61 -58 -70 -80 -43 -107 25 -25 42 -19 100 35 59 57 72
99 35 119 -28 15 -27 15 -92 -47z"/>
<path d="M2042 4447 c-52 -52 -63 -82 -40 -105 24 -24 54 -12 106 41 52 52 63
82 40 105 -24 24 -54 12 -106 -41z"/>
</g>
</svg>
