<?xml version="1.0" standalone="no"?>
<!DOCTYPE svg PUBLIC "-//W3C//DTD SVG 20010904//EN"
 "http://www.w3.org/TR/2001/REC-SVG-20010904/DTD/svg10.dtd">
<svg version="1.0" xmlns="http://www.w3.org/2000/svg"
 width="376.000000pt" height="604.000000pt" viewBox="0 0 376.000000 604.000000"
 preserveAspectRatio="xMidYMid meet">

<g transform="translate(0.000000,604.000000) scale(0.100000,-0.100000)"
fill="#e33310" stroke="none">
<path d="M1631 5939 c-296 -36 -628 -172 -859 -351 -483 -375 -748 -940 -719
-1533 22 -428 145 -706 704 -1583 327 -514 442 -710 588 -1007 221 -447 363
-845 460 -1287 l28 -128 52 0 52 0 12 63 c46 243 150 601 246 847 187 480 363
804 850 1565 232 362 307 491 430 740 114 231 149 318 181 449 121 500 31
1009 -254 1431 -285 423 -687 684 -1207 782 -95 18 -455 26 -564 12z m534
-142 c512 -95 905 -357 1167 -779 231 -372 305 -833 202 -1259 -31 -128 -56
-192 -165 -414 -125 -255 -189 -367 -424 -735 -114 -179 -243 -381 -285 -450
-362 -588 -606 -1123 -743 -1629 l-34 -124 -23 84 c-84 313 -211 649 -370 977
-160 328 -273 523 -635 1092 -429 673 -573 953 -641 1245 -26 110 -28 136 -28
325 0 316 43 507 175 767 254 502 739 842 1306 913 97 12 403 4 498 -13z"/>
<path d="M1110 4155 l0 -915 130 0 130 0 0 915 0 915 -130 0 -130 0 0 -915z"/>
<path d="M1465 4798 c-3 -7 -4 -135 -3 -283 l3 -270 90 0 90 0 0 280 0 280
-88 3 c-65 2 -89 -1 -92 -10z"/>
<path d="M1744 4697 c-2 -7 -3 -89 -2 -182 l3 -170 73 -3 72 -3 0 186 0 185
-70 0 c-48 0 -72 -4 -76 -13z"/>
<path d="M1990 4502 l0 -188 31 -30 c62 -59 69 -85 69 -274 0 -154 2 -171 18
-177 9 -3 37 -22 62 -43 89 -73 118 -75 191 -10 58 53 135 78 190 63 l41 -11
-7 52 c-20 159 -60 344 -89 410 -78 175 -247 328 -423 381 -89 27 -83 39 -83
-173z"/>
<path d="M1510 3743 c-41 -15 -50 -35 -50 -110 l0 -74 50 7 c70 9 129 -10 190
-62 71 -60 105 -60 180 1 66 54 106 69 171 63 47 -5 59 -11 158 -83 59 -43 95
-34 184 46 10 9 35 21 56 27 81 25 135 11 221 -57 71 -56 129 -53 185 9 11 12
37 31 58 41 l37 19 0 81 c0 74 -1 79 -18 70 -10 -5 -25 -17 -32 -26 -25 -30
-88 -55 -139 -55 -65 0 -95 12 -154 62 -31 26 -61 42 -85 45 -33 4 -45 -2
-105 -48 -63 -49 -74 -53 -131 -57 -68 -4 -122 15 -161 58 -26 29 -68 50 -99
50 -13 0 -44 -16 -68 -35 -79 -64 -114 -78 -184 -73 -57 4 -68 8 -130 56 -65
50 -94 60 -134 45z"/>
<path d="M1483 3451 c-21 -18 -23 -28 -23 -115 l0 -96 745 0 745 0 0 105 c0
58 -2 105 -5 105 -3 0 -30 -18 -59 -40 -92 -70 -182 -65 -279 15 -75 62 -113
62 -186 0 -107 -91 -198 -86 -319 17 -24 20 -43 28 -72 28 -29 0 -48 -8 -72
-28 -121 -103 -212 -108 -319 -17 -44 38 -60 45 -93 45 -25 -1 -50 -8 -63 -19z"/>
</g>
</svg>
