<?xml version="1.0" standalone="no"?>
<!DOCTYPE svg PUBLIC "-//W3C//DTD SVG 20010904//EN"
 "http://www.w3.org/TR/2001/REC-SVG-20010904/DTD/svg10.dtd">
<svg version="1.0" xmlns="http://www.w3.org/2000/svg"
 width="393.000000pt" height="610.000000pt" viewBox="0 0 393.000000 610.000000"
 preserveAspectRatio="xMidYMid meet">

<g transform="translate(0.000000,610.000000) scale(0.100000,-0.100000)"
fill="#840dbf" stroke="none">
<path d="M1771 6059 c-296 -36 -628 -172 -859 -351 -483 -375 -748 -940 -719
-1533 22 -428 145 -706 704 -1583 327 -514 442 -710 588 -1007 221 -447 363
-845 460 -1287 l28 -128 52 0 52 0 12 63 c46 243 150 601 246 847 187 480 363
804 850 1565 232 362 307 491 430 740 114 231 149 318 181 449 121 500 31
1009 -254 1431 -285 423 -687 684 -1207 782 -95 18 -455 26 -564 12z m534
-142 c512 -95 905 -357 1167 -779 231 -372 305 -833 202 -1259 -31 -128 -56
-192 -165 -414 -125 -255 -189 -367 -424 -735 -114 -179 -243 -381 -285 -450
-362 -588 -606 -1123 -743 -1629 l-34 -124 -23 84 c-84 313 -211 649 -370 977
-160 328 -273 523 -635 1092 -429 673 -573 953 -641 1245 -26 110 -28 136 -28
325 0 316 43 507 175 767 254 502 739 842 1306 913 97 12 403 4 498 -13z"/>
<path d="M2023 5320 c-87 -52 -83 -198 6 -245 41 -21 109 -19 147 4 83 51 83
189 -1 241 -42 26 -110 26 -152 0z"/>
<path d="M2009 5016 c-27 -9 -257 -187 -332 -256 -9 -8 -77 -292 -77 -322 0
-26 36 -58 64 -58 55 0 69 30 107 232 9 47 17 61 51 88 21 18 41 30 44 27 2
-2 -28 -148 -67 -323 l-72 -319 -96 -160 c-75 -125 -95 -168 -95 -197 -1 -48
35 -86 87 -95 32 -5 40 -1 70 28 18 19 78 110 132 203 93 159 101 176 125 284
l26 114 34 -39 c18 -21 57 -64 87 -96 29 -32 59 -68 67 -80 7 -12 23 -78 35
-147 34 -189 49 -231 92 -254 40 -22 78 -17 109 14 29 29 34 66 21 134 -6 34
-22 119 -36 190 -14 72 -25 131 -25 133 0 2 -167 201 -246 293 -11 13 -11 25
1 70 7 30 21 91 31 134 l17 80 28 -55 c24 -49 40 -63 149 -137 67 -45 129 -82
139 -82 27 0 61 38 61 69 0 33 -18 51 -130 126 l-85 57 -80 157 c-75 147 -83
157 -125 179 -51 25 -61 26 -111 8z"/>
<path d="M1082 3943 l3 -58 73 -3 72 -3 0 61 0 60 -75 0 -76 0 3 -57z"/>
<path d="M1370 3940 l0 -60 75 0 75 0 0 60 0 60 -75 0 -75 0 0 -60z"/>
<path d="M1940 3940 l0 -61 78 3 77 3 0 55 0 55 -77 3 -78 3 0 -61z"/>
<path d="M2520 3940 l0 -60 75 0 75 0 0 60 0 60 -75 0 -75 0 0 -60z"/>
<path d="M2810 3940 l0 -61 73 3 72 3 3 58 3 57 -76 0 -75 0 0 -60z"/>
<path d="M1087 3583 c-4 -3 -7 -30 -7 -60 l0 -53 75 0 75 0 0 60 0 60 -68 0
c-38 0 -72 -3 -75 -7z"/>
<path d="M1370 3530 l0 -60 75 0 76 0 -3 58 -3 57 -72 3 -73 3 0 -61z"/>
<path d="M1660 3530 l0 -60 75 0 76 0 -3 58 -3 57 -72 3 -73 3 0 -61z"/>
<path d="M1947 3584 c-4 -4 -7 -31 -7 -61 l0 -53 80 0 81 0 -3 58 -3 57 -70 3
c-39 1 -74 0 -78 -4z"/>
<path d="M2240 3530 l0 -60 75 0 76 0 -3 58 -3 57 -72 3 -73 3 0 -61z"/>
<path d="M2527 3583 c-4 -3 -7 -30 -7 -60 l0 -53 75 0 75 0 0 60 0 60 -68 0
c-38 0 -72 -3 -75 -7z"/>
<path d="M2810 3530 l0 -60 75 0 76 0 -3 58 -3 57 -72 3 -73 3 0 -61z"/>
</g>
</svg>
