<?xml version="1.0" standalone="no"?>
<!DOCTYPE svg PUBLIC "-//W3C//DTD SVG 20010904//EN"
 "http://www.w3.org/TR/2001/REC-SVG-20010904/DTD/svg10.dtd">
<svg version="1.0" xmlns="http://www.w3.org/2000/svg"
 width="407.000000pt" height="602.000000pt" viewBox="0 0 407.000000 602.000000"
 preserveAspectRatio="xMidYMid meet">

<g transform="translate(0.000000,602.000000) scale(0.100000,-0.100000)"
fill="#a6ab0c" stroke="none">
<path d="M1821 5949 c-296 -36 -628 -172 -859 -351 -483 -375 -748 -940 -719
-1533 22 -428 145 -706 704 -1583 327 -514 442 -710 588 -1007 221 -447 363
-845 460 -1287 l28 -128 52 0 52 0 12 63 c46 243 150 601 246 847 187 480 363
804 850 1565 232 362 307 491 430 740 114 231 149 318 181 449 121 500 31
1009 -254 1431 -285 423 -687 684 -1207 782 -95 18 -455 26 -564 12z m534
-142 c512 -95 905 -357 1167 -779 231 -372 305 -833 202 -1259 -31 -128 -56
-192 -165 -414 -125 -255 -189 -367 -424 -735 -114 -179 -243 -381 -285 -450
-362 -588 -606 -1123 -743 -1629 l-34 -124 -23 84 c-84 313 -211 649 -370 977
-160 328 -273 523 -635 1092 -429 673 -573 953 -641 1245 -26 110 -28 136 -28
325 0 316 43 507 175 767 254 502 739 842 1306 913 97 12 403 4 498 -13z"/>
<path d="M1903 5000 c-47 -63 -85 -99 -188 -175 -71 -53 -133 -101 -137 -108
-16 -25 -7 -56 21 -79 18 -14 35 -42 44 -73 8 -27 56 -165 106 -304 l91 -255
90 -90 90 -89 0 -379 0 -378 -61 0 c-34 0 -80 -6 -103 -12 -79 -24 -149 -125
-132 -192 l6 -26 408 2 407 3 3 35 c4 50 -34 119 -86 155 -39 26 -54 30 -128
34 l-84 3 0 376 0 376 100 101 c55 56 100 109 100 118 0 9 18 67 41 129 22 62
57 158 76 213 76 213 87 241 110 258 25 20 30 54 11 79 -7 9 -68 57 -135 107
-95 70 -135 108 -183 171 l-61 80 -173 0 -173 0 -60 -80z m385 -33 l22 -32
-84 -3 c-47 -1 -126 -1 -177 0 l-92 3 27 33 28 32 126 0 127 0 23 -33z m185
-184 l90 -68 -217 -3 c-120 -1 -312 -1 -427 0 l-210 3 88 67 88 67 249 0 249
1 90 -67z m-582 -205 c6 -24 17 -73 25 -110 8 -37 30 -132 49 -210 19 -78 35
-150 35 -160 0 -15 -8 -18 -47 -18 l-48 0 -42 118 c-100 279 -132 369 -138
395 l-7 27 81 0 80 0 12 -42z m409 32 c0 -6 -7 -39 -15 -73 -7 -34 -32 -141
-55 -237 -22 -96 -43 -185 -46 -198 -4 -20 -10 -23 -46 -20 l-41 3 -27 105
c-35 138 -100 413 -100 423 0 12 330 9 330 -3z m250 -17 c-11 -38 -158 -451
-171 -485 -10 -25 -16 -28 -60 -28 -27 0 -49 4 -49 9 0 10 32 148 88 379 l36
152 82 0 83 0 -9 -27z m-305 -653 c-48 -49 -50 -50 -110 -50 -60 0 -62 1 -110
50 l-49 50 159 0 159 0 -49 -50z m-75 -500 l0 -370 -30 0 -30 0 0 370 0 370
30 0 30 0 0 -370z m262 -490 l33 -29 -322 -1 c-192 0 -323 4 -323 9 0 5 12 19
26 30 25 20 39 21 290 21 l264 0 32 -30z"/>
<path d="M2070 4546 c-21 -26 -8 -59 27 -69 71 -21 138 17 113 63 -9 16 -21
20 -69 20 -39 0 -63 -5 -71 -14z"/>
<path d="M2064 4385 c-9 -36 1 -52 36 -60 73 -16 134 20 110 65 -9 17 -21 20
-75 20 -61 0 -65 -2 -71 -25z"/>
<path d="M1240 4651 c-20 -39 -15 -43 252 -190 52 -29 80 -23 86 17 4 25 -28
49 -174 130 -118 66 -147 74 -164 43z"/>
<path d="M2900 4624 c-41 -24 -97 -55 -125 -70 -63 -33 -85 -52 -85 -74 0 -25
26 -43 52 -36 37 9 279 151 290 169 13 24 -8 57 -35 56 -12 0 -56 -21 -97 -45z"/>
<path d="M1172 4358 c-18 -18 -15 -46 7 -58 11 -6 88 -10 179 -10 172 0 187 4
180 52 -3 23 -4 23 -178 26 -128 2 -179 -1 -188 -10z"/>
<path d="M2742 4358 c-6 -6 -12 -20 -12 -29 0 -35 23 -40 195 -37 147 3 169 5
179 21 8 12 8 22 0 35 -10 15 -32 17 -180 20 -123 2 -173 -1 -182 -10z"/>
<path d="M1450 4182 c-36 -22 -97 -58 -137 -81 -39 -23 -74 -49 -77 -58 -7
-18 20 -53 40 -53 20 0 287 155 299 174 14 22 -5 50 -36 54 -14 1 -51 -14 -89
-36z"/>
<path d="M2700 4205 c-25 -30 -4 -50 140 -132 79 -46 149 -83 156 -83 6 0 19
9 28 19 28 31 8 52 -137 134 -136 78 -165 88 -187 62z"/>
</g>
</svg>
