<?xml version="1.0" standalone="no"?>
<!DOCTYPE svg PUBLIC "-//W3C//DTD SVG 20010904//EN"
 "http://www.w3.org/TR/2001/REC-SVG-20010904/DTD/svg10.dtd">
<svg version="1.0" xmlns="http://www.w3.org/2000/svg"
 width="393.000000pt" height="596.000000pt" viewBox="0 0 393.000000 596.000000"
 preserveAspectRatio="xMidYMid meet">

<g transform="translate(0.000000,596.000000) scale(0.100000,-0.100000)"
fill="#ad6b07" stroke="none">
<path d="M1741 5929 c-296 -36 -628 -172 -859 -351 -483 -375 -748 -940 -719
-1533 22 -428 145 -706 704 -1583 327 -514 442 -710 588 -1007 221 -447 363
-845 460 -1287 l28 -128 52 0 52 0 12 63 c46 243 150 601 246 847 187 480 363
804 850 1565 232 362 307 491 430 740 114 231 149 318 181 449 121 500 31
1009 -254 1431 -285 423 -687 684 -1207 782 -95 18 -455 26 -564 12z m534
-142 c512 -95 905 -357 1167 -779 231 -372 305 -833 202 -1259 -31 -128 -56
-192 -165 -414 -125 -255 -189 -367 -424 -735 -114 -179 -243 -381 -285 -450
-362 -588 -606 -1123 -743 -1629 l-34 -124 -23 84 c-84 313 -211 649 -370 977
-160 328 -273 523 -635 1092 -429 673 -573 953 -641 1245 -26 110 -28 136 -28
325 0 316 43 507 175 767 254 502 739 842 1306 913 97 12 403 4 498 -13z"/>
<path d="M1611 5078 c-47 -13 -103 -61 -132 -111 l-24 -42 -3 -623 -3 -622 28
-11 c163 -66 283 -159 342 -264 40 -71 62 -164 50 -209 -13 -49 -39 -66 -115
-77 -139 -21 -203 -71 -207 -161 l-2 -43 423 -3 422 -2 0 230 c0 176 3 231 13
234 6 2 46 11 87 21 160 38 316 155 391 295 36 67 79 214 79 272 0 26 6 37 30
50 59 34 49 109 -17 127 -24 7 -216 11 -530 11 l-492 0 -3 383 c-3 377 -3 383
-26 429 -52 105 -182 154 -311 116z"/>
</g>
</svg>
